<?xml version="1.0" standalone="no"?>
<svg xmlns="http://www.w3.org/2000/svg" viewBox="0 0 105 70" width="105" height="70"><g fill="#b4af1e" color="#b4af1e" transform="translate(30.008 0) scale(0.44) "><svg width="100.0" height="100.0" x="0.0" y="0.0" viewBox="0 0 100 100"><path d="M74.05,19.592c-4.213-3.223-8.957-5.537-14.098-6.876l-0.373,1.432c4.949,1.29,9.515,3.516,13.571,6.62L74.05,19.592z"></path><path d="M40.492,14.022l-0.354-1.437c-15.54,3.837-27.063,16.331-29.358,31.83l1.464,0.217  C14.45,29.729,25.538,17.714,40.492,14.022z"></path><path d="M12.343,55.994l-1.46,0.242c2.508,15.149,13.962,27.378,29.179,31.157l0.357-1.437C25.776,82.32,14.755,70.56,12.343,55.994  z"></path><path d="M79.729,24.895l-1.113,0.976C84.5,32.584,87.74,41.154,87.74,50c0,0.717-0.029,1.429-0.071,2.139l-0.638-0.562  c-0.803,0.912-2.22,1.799-4.212,2.636l0.572,1.364c1.835-0.77,3.245-1.606,4.217-2.489C86.295,68.366,75.337,81.537,60.06,85.724  l0.392,1.427C77.39,82.509,89.22,67.232,89.22,50C89.22,40.795,85.85,31.879,79.729,24.895z"></path><path d="M13.818,45.589c-0.922,0.538-1.67,1.106-2.222,1.69l1.075,1.017c0.455-0.481,1.092-0.962,1.893-1.429L13.818,45.589z"></path><path d="M67.662,40.626c-1.723-0.211-3.523-0.391-5.35-0.535l-0.117,1.476c1.807,0.142,3.586,0.32,5.288,0.528L67.662,40.626z"></path><path d="M72.949,58.46c1.889-0.348,3.664-0.742,5.275-1.17l-0.38-1.43c-1.574,0.418-3.311,0.803-5.163,1.144L72.949,58.46z"></path><path d="M71.993,42.871c1.849,0.326,3.591,0.694,5.179,1.094l0.361-1.435c-1.622-0.409-3.399-0.785-5.283-1.117L71.993,42.871z"></path><path d="M67.626,59.285l-0.188-1.468c-1.698,0.218-3.476,0.406-5.285,0.558l0.124,1.475C64.107,59.697,65.906,59.506,67.626,59.285z  "></path><path d="M52.318,39.643l-0.01,1.48c1.781,0.012,2.091,0.054,3.839,0.126l0.061-1.479C54.442,39.698,54.115,39.655,52.318,39.643z"></path><path d="M40.196,41.42c1.74-0.111,3.527-0.192,5.313-0.241l-0.04-1.479c-1.804,0.05-3.609,0.132-5.366,0.244L40.196,41.42z"></path><path d="M46.21,58.839c-1.79-0.042-3.578-0.114-5.314-0.216L40.809,60.1c1.754,0.103,3.559,0.177,5.366,0.218L46.21,58.839z"></path><path d="M34.746,40.391c-1.838,0.192-3.634,0.421-5.337,0.682l0.224,1.463c1.679-0.257,3.451-0.484,5.266-0.673L34.746,40.391z"></path><path d="M25.106,56.649c-1.86-0.388-3.581-0.823-5.116-1.291l-0.432,1.416c1.577,0.482,3.342,0.927,5.246,1.325L25.106,56.649z"></path><path d="M24.107,42.048c-1.916,0.418-3.676,0.886-5.233,1.39l0.455,1.408c1.512-0.489,3.225-0.944,5.095-1.352L24.107,42.048z"></path><path d="M35.597,58.208c-1.815-0.179-3.588-0.395-5.272-0.641l-0.214,1.464c1.706,0.25,3.503,0.468,5.34,0.65L35.597,58.208z"></path><path d="M53.01,58.871l0.016,1.48c1.797-0.02,2.123-0.071,3.889-0.152l-0.068-1.479C55.098,58.801,54.789,58.851,53.01,58.871z"></path><path d="M87.586,46.886c-1.084-0.977-2.721-1.898-4.866-2.735l-0.538,1.379c1.977,0.772,3.462,1.599,4.413,2.456L87.586,46.886z"></path><path d="M15.118,53.433c-0.817-0.432-1.496-0.879-2.018-1.329l-0.967,1.121c0.606,0.523,1.378,1.033,2.294,1.517L15.118,53.433z"></path><path d="M50,18.723c3.634,0,6.66-2.927,6.66-6.561C56.66,8.543,53.673,5.6,50,5.6s-6.66,2.943-6.66,6.561  C43.34,15.845,46.409,18.723,50,18.723z M50,7.08c2.856,0,5.18,2.28,5.18,5.081c0,2.866-2.397,5.081-5.18,5.081  c-2.772,0-5.18-2.197-5.18-5.081C44.82,9.36,47.144,7.08,50,7.08z"></path><path d="M50,81.277c-3.634,0-6.66,2.927-6.66,6.561c0,3.618,2.987,6.561,6.66,6.561s6.66-2.943,6.66-6.561  C56.66,84.155,53.591,81.277,50,81.277z M50,92.92c-2.856,0-5.18-2.28-5.18-5.081c0-2.866,2.397-5.081,5.18-5.081  c2.772,0,5.18,2.197,5.18,5.081C55.18,90.64,52.856,92.92,50,92.92z"></path><rect x="49.26" y="21.14" width="1.48" height="28.86"></rect><rect x="50.105" y="40.028" transform="matrix(0.7071 -0.7071 0.7071 0.7071 -11.5391 53.6787)" width="17.843" height="1.48"></rect><path d="M69.775,25.58c-2.448,0-4.44,1.992-4.44,4.44c0,2.449,1.975,4.44,4.44,4.44c2.448,0,4.44-1.992,4.44-4.44  S72.223,25.58,69.775,25.58z M69.775,32.98c-1.652,0-2.96-1.331-2.96-2.96c0-1.632,1.328-2.96,2.96-2.96  c1.632,0,2.96,1.328,2.96,2.96C72.735,31.652,71.407,32.98,69.775,32.98z"></path><rect x="49.26" y="69.98" width="1.48" height="2.96"></rect><rect x="49.26" y="52.22" width="1.48" height="2.96"></rect><rect x="49.26" y="64.06" width="1.48" height="2.96"></rect><rect x="49.26" y="75.9" width="1.48" height="2.96"></rect><rect x="49.26" y="58.14" width="1.48" height="2.96"></rect></svg></g><path fill="#295c3c" fill-rule="nonzero" d="M17.52 0.14L21.00 0.14L16.42 17.23L13.63 17.23L10.49 6.86L7.34 17.23L4.56 17.23L0 0.14L3.48 0.14L6.12 10.92L8.74 2.02Q9.17 0.02 10.56 0.02L10.56 0.02Q11.26 0.02 11.62 0.54Q11.98 1.06 12.26 2.02L12.26 2.02L14.86 10.92L17.52 0.14ZM32.33 3.43L32.33 17.23L30.24 17.23L29.28 15.58L25.94 17.38Q23.16 17.38 22.20 15.36L22.20 15.36Q21.72 14.38 21.54 13.24Q21.36 12.10 21.36 10.86Q21.36 9.62 21.38 9.04Q21.41 8.45 21.50 7.67Q21.60 6.89 21.78 6.36Q21.96 5.83 22.30 5.27Q22.63 4.70 23.11 4.37L23.11 4.37Q24.19 3.62 25.92 3.62L25.92 3.62L29.21 3.62L32.33 3.43ZM26.83 14.09L29.21 12.86L29.21 6.43L26.83 6.43Q25.51 6.43 25.00 7.44Q24.48 8.45 24.48 10.45Q24.48 12.46 24.97 13.27Q25.46 14.09 26.83 14.09L26.83 14.09ZM42.41 3.53L45.70 3.53L41.11 17.23L38.66 17.23L34.06 3.53L37.34 3.53L39.89 12.46L42.41 3.53ZM57.82 11.11L57.82 11.11L49.82 11.11Q49.82 12.98 50.41 13.85Q51 14.71 52.78 14.71L52.78 14.71Q53.93 14.71 54.48 13.98Q55.03 13.25 55.03 12.58L55.03 12.58L57.84 12.58Q57.84 15.14 56.46 16.34Q55.08 17.54 52.81 17.54Q50.54 17.54 49.30 16.90L49.30 16.90Q46.73 15.58 46.73 9.89L46.73 9.89Q46.73 6.50 48.19 4.93Q49.66 3.36 52.66 3.36L52.66 3.36Q57.86 3.36 57.86 9.14L57.86 9.14Q57.86 9.77 57.82 11.11ZM49.90 8.98L49.90 8.98L55.03 8.98Q55.03 7.39 54.43 6.67Q53.83 5.95 52.60 5.95Q51.36 5.95 50.63 6.68Q49.90 7.42 49.90 8.98ZM70.92 0.14L74.26 0.14L74.26 15.50Q74.26 16.30 73.78 16.86Q73.30 17.42 72.65 17.42L72.65 17.42Q70.99 17.42 69.94 15.50L69.94 15.50L64.03 6.26L64.03 17.23L60.70 17.23L60.70 0.14L63.91 0.14L70.92 11.33L70.92 0.14ZM86.35 10.61L86.35 10.61L89.45 10.61Q89.45 13.87 87.82 15.62Q86.18 17.38 83.21 17.38L83.21 17.38Q76.66 17.38 76.66 9.67L76.66 9.67L76.66 8.23Q76.66 2.16 80.02 0.62L80.02 0.62Q81.34 0 83.21 0L83.21 0Q85.94 0 87.66 1.50Q89.38 3.00 89.38 5.83L89.38 5.83L86.26 5.83Q85.99 4.42 85.32 3.70Q84.65 2.98 83.21 2.98L83.21 2.98Q81.53 2.98 80.71 4.03L80.71 4.03Q80.14 4.78 80.04 6.58L80.04 6.58Q79.99 7.15 79.99 8.14L79.99 8.14L79.99 9.62Q79.99 12.38 80.76 13.39L80.76 13.39Q81.55 14.40 83.22 14.40Q84.89 14.40 85.52 13.48Q86.16 12.55 86.35 10.61ZM100.92 10.61L100.92 10.61L104.02 10.61Q104.02 13.87 102.38 15.62Q100.75 17.38 97.78 17.38L97.78 17.38Q91.22 17.38 91.22 9.67L91.22 9.67L91.22 8.23Q91.22 2.16 94.58 0.62L94.58 0.62Q95.90 0 97.78 0L97.78 0Q100.51 0 102.23 1.50Q103.94 3.00 103.94 5.83L103.94 5.83L100.82 5.83Q100.56 4.42 99.89 3.70Q99.22 2.98 97.78 2.98L97.78 2.98Q96.10 2.98 95.28 4.03L95.28 4.03Q94.70 4.78 94.61 6.58L94.61 6.58Q94.56 7.15 94.56 8.14L94.56 8.14L94.56 9.62Q94.56 12.38 95.33 13.39L95.33 13.39Q96.12 14.40 97.79 14.40Q99.46 14.40 100.09 13.48Q100.73 12.55 100.92 10.61Z" transform="translate(0, 52)"></path></svg>